<?xml version="1.0" standalone="no"?><!DOCTYPE svg PUBLIC "-//W3C//DTD SVG 1.1//EN" "http://www.w3.org/Graphics/SVG/1.1/DTD/svg11.dtd"><svg class="icon" width="200px" height="200px" viewBox="0 0 1024 1024" version="1.1" xmlns="http://www.w3.org/2000/svg"><path fill="#1296db" d="M842.67 128H181.33C151.89 128 128 151.89 128 181.33v661.34C128 871.11 151.89 896 181.33 896h661.34C871.11 896 896 871.11 896 842.67V181.33C896 151.89 871.11 128 842.67 128zM298.67 256c35.35 0 64 28.65 64 64s-28.65 64-64 64-64-28.65-64-64 28.65-64 64-64zM768 768H256l149.33-213.33 106.67 128 149.33-192L768 640v128z" /></svg>